{
  "accessors": [
    {
      "name": "Mesh1 Group2 Group1 Model_1_0_positions",
      "componentType": 5126,
      "count": 486,
      "min": [
        1532.06005859375,
        142.71400451660156,
        -1127.8499755859375
      ],
      "max": [
        1625.43994140625,
        414.05999755859375,
        -963.468017578125
      ],
      "type": "VEC3",
      "bufferView": 0,
      "byteOffset": 0
    },
    {
      "name": "Mesh1 Group2 Group1 Model_1_0_normals",
      "componentType": 5126,
      "count": 486,
      "min": [
        -0.9530013203620911,
        -0.9997867941856384,
        -0.95297771692276
      ],
      "max": [
        0.9530013203620911,
        0.9404730796813965,
        0.9508826732635498
      ],
      "type": "VEC3",
      "bufferView": 1,
      "byteOffset": 0
    },
    {
      "name": "Mesh1 Group2 Group1 Model_1_0_texcoords",
      "componentType": 5126,
      "count": 486,
      "min": [
        -6.851940155029297,
        -9.828399658203125
      ],
      "max": [
        6.851940155029297,
        6.003109931945801
      ],
      "type": "VEC2",
      "bufferView": 2,
      "byteOffset": 0
    },
    {
      "name": "Mesh1 Group2 Group1 Model_1_0_indices",
      "componentType": 5123,
      "count": 984,
      "min": [
        0
      ],
      "max": [
        485
      ],
      "type": "SCALAR",
      "bufferView": 3,
      "byteOffset": 0
    },
    {
      "name": "Mesh2 Group3 Group1 Model_1_0_positions",
      "componentType": 5126,
      "count": 500,
      "min": [
        1560.6500244140625,
        573.3980102539062,
        -791.666015625
      ],
      "max": [
        1693.43994140625,
        759.1810302734375,
        -594.1209716796875
      ],
      "type": "VEC3",
      "bufferView": 0,
      "byteOffset": 5832
    },
    {
      "name": "Mesh2 Group3 Group1 Model_1_0_normals",
      "componentType": 5126,
      "count": 500,
      "min": [
        -0.9778399467468262,
        -0.9993142485618591,
        -0.9323287010192871
      ],
      "max": [
        0.9778399467468262,
        0.999744176864624,
        0.9777659177780151
      ],
      "type": "VEC3",
      "bufferView": 1,
      "byteOffset": 5832
    },
    {
      "name": "Mesh2 Group3 Group1 Model_1_0_texcoords",
      "componentType": 5126,
      "count": 500,
      "min": [
        -7.5760698318481445,
        -7.139679908752441
      ],
      "max": [
        7.5760698318481445,
        6.159200191497803
      ],
      "type": "VEC2",
      "bufferView": 2,
      "byteOffset": 3888
    },
    {
      "name": "Mesh2 Group3 Group1 Model_1_0_indices",
      "componentType": 5123,
      "count": 990,
      "min": [
        0
      ],
      "max": [
        499
      ],
      "type": "SCALAR",
      "bufferView": 3,
      "byteOffset": 1968
    },
    {
      "name": "Mesh3 Group4 Group1 Model_1_0_positions",
      "componentType": 5126,
      "count": 198,
      "min": [
        1605.3800048828125,
        155.87100219726562,
        -897.2059936523438
      ],
      "max": [
        1677.969970703125,
        433.7170104980469,
        -798.2119750976562
      ],
      "type": "VEC3",
      "bufferView": 0,
      "byteOffset": 11832
    },
    {
      "name": "Mesh3 Group4 Group1 Model_1_0_normals",
      "componentType": 5126,
      "count": 198,
      "min": [
        -0.9530013203620911,
        -0.9975202083587646,
        -0.9529200196266174
      ],
      "max": [
        0.9530013203620911,
        0.6038997173309326,
        0.9485941529273987
      ],
      "type": "VEC3",
      "bufferView": 1,
      "byteOffset": 11832
    },
    {
      "name": "Mesh3 Group4 Group1 Model_1_0_texcoords",
      "componentType": 5126,
      "count": 198,
      "min": [
        -4.1508097648620605,
        -9.938799858093262
      ],
      "max": [
        4.1508097648620605,
        4.324979782104492
      ],
      "type": "VEC2",
      "bufferView": 2,
      "byteOffset": 7888
    },
    {
      "name": "Mesh3 Group4 Group1 Model_1_0_indices",
      "componentType": 5123,
      "count": 408,
      "min": [
        0
      ],
      "max": [
        197
      ],
      "type": "SCALAR",
      "bufferView": 3,
      "byteOffset": 3948
    },
    {
      "name": "Mesh4 Group5 Group1 Model_1_0_positions",
      "componentType": 5126,
      "count": 486,
      "min": [
        1420.56005859375,
        142.71400451660156,
        -1092.4000244140625
      ],
      "max": [
        1513.93994140625,
        414.05999755859375,
        -928.02099609375
      ],
      "type": "VEC3",
      "bufferView": 0,
      "byteOffset": 14208
    },
    {
      "name": "Mesh4 Group5 Group1 Model_1_0_normals",
      "componentType": 5126,
      "count": 486,
      "min": [
        -0.9530013203620911,
        -0.9997867941856384,
        -0.95297771692276
      ],
      "max": [
        0.9530013203620911,
        0.9404730796813965,
        0.9508826732635498
      ],
      "type": "VEC3",
      "bufferView": 1,
      "byteOffset": 14208
    },
    {
      "name": "Mesh4 Group5 Group1 Model_1_0_texcoords",
      "componentType": 5126,
      "count": 486,
      "min": [
        -6.851940155029297,
        -9.828399658203125
      ],
      "max": [
        6.851940155029297,
        6.003109931945801
      ],
      "type": "VEC2",
      "bufferView": 2,
      "byteOffset": 9472
    },
    {
      "name": "Mesh4 Group5 Group1 Model_1_0_indices",
      "componentType": 5123,
      "count": 984,
      "min": [
        0
      ],
      "max": [
        485
      ],
      "type": "SCALAR",
      "bufferView": 3,
      "byteOffset": 4764
    },
    {
      "name": "Mesh5 Group6 Group1 Model_1_0_positions",
      "componentType": 5126,
      "count": 198,
      "min": [
        1493.8800048828125,
        155.87100219726562,
        -861.7589721679688
      ],
      "max": [
        1566.469970703125,
        433.7170104980469,
        -762.7650146484375
      ],
      "type": "VEC3",
      "bufferView": 0,
      "byteOffset": 20040
    },
    {
      "name": "Mesh5 Group6 Group1 Model_1_0_normals",
      "componentType": 5126,
      "count": 198,
      "min": [
        -0.9530013203620911,
        -0.9975202083587646,
        -0.9529200196266174
      ],
      "max": [
        0.9530013203620911,
        0.6038997173309326,
        0.9485941529273987
      ],
      "type": "VEC3",
      "bufferView": 1,
      "byteOffset": 20040
    },
    {
      "name": "Mesh5 Group6 Group1 Model_1_0_texcoords",
      "componentType": 5126,
      "count": 198,
      "min": [
        -4.1508097648620605,
        -9.938799858093262
      ],
      "max": [
        4.1508097648620605,
        4.324979782104492
      ],
      "type": "VEC2",
      "bufferView": 2,
      "byteOffset": 13360
    },
    {
      "name": "Mesh5 Group6 Group1 Model_1_0_indices",
      "componentType": 5123,
      "count": 408,
      "min": [
        0
      ],
      "max": [
        197
      ],
      "type": "SCALAR",
      "bufferView": 3,
      "byteOffset": 6732
    },
    {
      "name": "Mesh6 Group7 Group1 Model_1_0_positions",
      "componentType": 5126,
      "count": 438,
      "min": [
        1345.8800048828125,
        24.140199661254883,
        -1490.8699951171875
      ],
      "max": [
        1488.8499755859375,
        552.8469848632812,
        -1167.5899658203125
      ],
      "type": "VEC3",
      "bufferView": 0,
      "byteOffset": 22416
    },
    {
      "name": "Mesh6 Group7 Group1 Model_1_0_normals",
      "componentType": 5126,
      "count": 438,
      "min": [
        -0.9413291215896606,
        -0.999027669429779,
        -0.8966209888458252
      ],
      "max": [
        0.9413291215896606,
        0.9537474513053894,
        0.9408307075500488
      ],
      "type": "VEC3",
      "bufferView": 1,
      "byteOffset": 22416
    },
    {
      "name": "Mesh6 Group7 Group1 Model_1_0_texcoords",
      "componentType": 5126,
      "count": 438,
      "min": [
        -13.262900352478027,
        -22.835800170898438
      ],
      "max": [
        13.262900352478027,
        2.153409957885742
      ],
      "type": "VEC2",
      "bufferView": 2,
      "byteOffset": 14944
    },
    {
      "name": "Mesh6 Group7 Group1 Model_1_0_indices",
      "componentType": 5123,
      "count": 864,
      "min": [
        0
      ],
      "max": [
        437
      ],
      "type": "SCALAR",
      "bufferView": 3,
      "byteOffset": 7548
    },
    {
      "name": "Mesh7 Group1 Model_1_0_positions",
      "componentType": 5126,
      "count": 790,
      "min": [
        1387.6700439453125,
        371.26300048828125,
        -1211.260009765625
      ],
      "max": [
        1713.760009765625,
        712.635986328125,
        -686.7360229492188
      ],
      "type": "VEC3",
      "bufferView": 0,
      "byteOffset": 27672
    },
    {
      "name": "Mesh7 Group1 Model_1_0_normals",
      "componentType": 5126,
      "count": 790,
      "min": [
        -0.9530013203620911,
        -0.9999532699584961,
        -0.952605664730072
      ],
      "max": [
        0.9530013203620911,
        0.9999808669090271,
        0.9529960751533508
      ],
      "type": "VEC3",
      "bufferView": 1,
      "byteOffset": 27672
    },
    {
      "name": "Mesh7 Group1 Model_1_0_texcoords",
      "componentType": 5126,
      "count": 790,
      "min": [
        -32.522300720214844,
        -35.55889892578125
      ],
      "max": [
        32.522300720214844,
        29.24139976501465
      ],
      "type": "VEC2",
      "bufferView": 2,
      "byteOffset": 18448
    },
    {
      "name": "Mesh7 Group1 Model_1_0_indices",
      "componentType": 5123,
      "count": 1572,
      "min": [
        0
      ],
      "max": [
        789
      ],
      "type": "SCALAR",
      "bufferView": 3,
      "byteOffset": 9276
    },
    {
      "name": "Mesh8 Model_1_0_positions",
      "componentType": 5126,
      "count": 4,
      "min": [
        1479.25,
        0,
        -871.9559936523438
      ],
      "max": [
        1480.25,
        0,
        -871.052978515625
      ],
      "type": "VEC3",
      "bufferView": 0,
      "byteOffset": 37152
    },
    {
      "name": "Mesh8 Model_1_0_normals",
      "componentType": 5126,
      "count": 4,
      "min": [
        0,
        1,
        0
      ],
      "max": [
        0,
        1,
        0
      ],
      "type": "VEC3",
      "bufferView": 1,
      "byteOffset": 37152
    },
    {
      "name": "Mesh8 Model_1_0_texcoords",
      "componentType": 5126,
      "count": 4,
      "min": [
        0,
        0
      ],
      "max": [
        1,
        1
      ],
      "type": "VEC2",
      "bufferView": 2,
      "byteOffset": 24768
    },
    {
      "name": "Mesh8 Model_1_0_indices",
      "componentType": 5123,
      "count": 6,
      "min": [
        0
      ],
      "max": [
        3
      ],
      "type": "SCALAR",
      "bufferView": 3,
      "byteOffset": 12420
    }
  ],
  "asset": {
    "generator": "obj2gltf",
    "version": "2.0"
  },
  "buffers": [
    {
      "name": "bboat-logo",
      "byteLength": 111632,
      "uri": "data:application/octet-stream;base64,"
    }
  ],
  "bufferViews": [
    {
      "name": "bufferView_0",
      "buffer": 0,
      "byteLength": 37200,
      "byteOffset": 0,
      "byteStride": 12,
      "target": 34962
    },
    {
      "name": "bufferView_1",
      "buffer": 0,
      "byteLength": 37200,
      "byteOffset": 37200,
      "byteStride": 12,
      "target": 34962
    },
    {
      "name": "bufferView_2",
      "buffer": 0,
      "byteLength": 24800,
      "byteOffset": 74400,
      "byteStride": 8,
      "target": 34962
    },
    {
      "name": "bufferView_3",
      "buffer": 0,
      "byteLength": 12432,
      "byteOffset": 99200,
      "target": 34963
    }
  ],
  "materials": [
    {
      "name": "Color_A06",
      "pbrMetallicRoughness": {
        "baseColorFactor": [
          0.8,
          0,
          0,
          1
        ],
        "metallicFactor": 0,
        "roughnessFactor": 1
      },
      "emissiveFactor": [
        0,
        0,
        0
      ],
      "alphaMode": "OPAQUE",
      "doubleSided": false
    },
    {
      "name": "logo",
      "pbrMetallicRoughness": {
        "baseColorFactor": [
          0.501961,
          0.501961,
          0.501961,
          1
        ],
        "metallicFactor": 0,
        "roughnessFactor": 1
      },
      "emissiveFactor": [
        0,
        0,
        0
      ],
      "alphaMode": "OPAQUE",
      "doubleSided": false
    }
  ],
  "meshes": [
    {
      "name": "Mesh1 Group2 Group1 Model_1",
      "primitives": [
        {
          "attributes": {
            "POSITION": 0,
            "NORMAL": 1,
            "TEXCOORD_0": 2
          },
          "indices": 3,
          "material": 0,
          "mode": 4
        }
      ]
    },
    {
      "name": "Mesh2 Group3 Group1 Model_1",
      "primitives": [
        {
          "attributes": {
            "POSITION": 4,
            "NORMAL": 5,
            "TEXCOORD_0": 6
          },
          "indices": 7,
          "material": 0,
          "mode": 4
        }
      ]
    },
    {
      "name": "Mesh3 Group4 Group1 Model_1",
      "primitives": [
        {
          "attributes": {
            "POSITION": 8,
            "NORMAL": 9,
            "TEXCOORD_0": 10
          },
          "indices": 11,
          "material": 0,
          "mode": 4
        }
      ]
    },
    {
      "name": "Mesh4 Group5 Group1 Model_1",
      "primitives": [
        {
          "attributes": {
            "POSITION": 12,
            "NORMAL": 13,
            "TEXCOORD_0": 14
          },
          "indices": 15,
          "material": 0,
          "mode": 4
        }
      ]
    },
    {
      "name": "Mesh5 Group6 Group1 Model_1",
      "primitives": [
        {
          "attributes": {
            "POSITION": 16,
            "NORMAL": 17,
            "TEXCOORD_0": 18
          },
          "indices": 19,
          "material": 0,
          "mode": 4
        }
      ]
    },
    {
      "name": "Mesh6 Group7 Group1 Model_1",
      "primitives": [
        {
          "attributes": {
            "POSITION": 20,
            "NORMAL": 21,
            "TEXCOORD_0": 22
          },
          "indices": 23,
          "material": 0,
          "mode": 4
        }
      ]
    },
    {
      "name": "Mesh7 Group1 Model_1",
      "primitives": [
        {
          "attributes": {
            "POSITION": 24,
            "NORMAL": 25,
            "TEXCOORD_0": 26
          },
          "indices": 27,
          "material": 0,
          "mode": 4
        }
      ]
    },
    {
      "name": "Mesh8 Model_1",
      "primitives": [
        {
          "attributes": {
            "POSITION": 28,
            "NORMAL": 29,
            "TEXCOORD_0": 30
          },
          "indices": 31,
          "material": 1,
          "mode": 4
        }
      ]
    }
  ],
  "nodes": [
    {
      "name": "Mesh1 Group2 Group1 Model",
      "mesh": 0
    },
    {
      "name": "Mesh2 Group3 Group1 Model",
      "mesh": 1
    },
    {
      "name": "Mesh3 Group4 Group1 Model",
      "mesh": 2
    },
    {
      "name": "Mesh4 Group5 Group1 Model",
      "mesh": 3
    },
    {
      "name": "Mesh5 Group6 Group1 Model",
      "mesh": 4
    },
    {
      "name": "Mesh6 Group7 Group1 Model",
      "mesh": 5
    },
    {
      "name": "Mesh7 Group1 Model",
      "mesh": 6
    },
    {
      "name": "Mesh8 Model",
      "mesh": 7
    }
  ],
  "scene": 0,
  "scenes": [
    {
      "nodes": [
        0,
        1,
        2,
        3,
        4,
        5,
        6,
        7
      ]
    }
  ]
}
